<?xml version="1.0" encoding="utf-8"?>
<!-- Generator: Adobe Illustrator 23.0.3, SVG Export Plug-In . SVG Version: 6.00 Build 0)  -->
<svg version="1.1" id="Layer_1" xmlns="http://www.w3.org/2000/svg" xmlns:xlink="http://www.w3.org/1999/xlink" x="0px" y="0px"
	 viewBox="0 0 492 492" style="enable-background:new 0 0 492 492;" xml:space="preserve">
<style type="text/css">
	.st0{fill:#0084BD;}
</style>
<g>
	<g>
		<path class="st0" d="M109.3,226.8L328.3,7.9c5.1-5.1,11.8-7.9,19-7.9s14,2.8,19,7.9L382.5,24c10.5,10.5,10.5,27.6,0,38.1
			L198.6,245.9L382.7,430c5.1,5.1,7.9,11.8,7.9,19c0,7.2-2.8,14-7.9,19l-16.1,16.1c-5.1,5.1-11.8,7.9-19,7.9s-14-2.8-19-7.9
			L109.3,265c-5.1-5.1-7.9-11.9-7.8-19.1C101.5,238.7,104.3,231.9,109.3,226.8z"/>
	</g>
</g>
</svg>
